<svg version="1.1" id="Layer_1" xmlns="http://www.w3.org/2000/svg" xmlns:xlink="http://www.w3.org/1999/xlink" x="0px" y="0px" width="100%" viewBox="0 0 800 800" enable-background="new 0 0 800 800" xml:space="preserve">
<path fill="#000000" opacity="1.000000" stroke="none" d="
M552.000000,801.000000 
	C368.000000,801.000000 184.500000,801.000000 1.000000,801.000000 
	C1.000000,534.333313 1.000000,267.666656 1.000000,1.000000 
	C267.666656,1.000000 534.333313,1.000000 801.000000,1.000000 
	C801.000000,267.666656 801.000000,534.333313 801.000000,801.000000 
	C718.166687,801.000000 635.333313,801.000000 552.000000,801.000000 
M115.017555,495.705078 
	C115.073875,496.486908 115.130196,497.268738 115.035728,498.893402 
	C115.390442,500.984589 115.881920,503.063141 116.077126,505.169098 
	C117.144501,516.684265 120.399765,527.397827 126.558525,537.319641 
	C134.825500,550.637756 147.435257,557.722717 161.800339,561.820129 
	C168.591736,563.757263 175.985626,564.480896 183.067719,564.292786 
	C194.100372,563.999695 205.404160,563.716248 216.037872,561.138550 
	C229.874832,557.784241 241.358749,549.469849 250.325638,538.798523 
	C256.903534,543.213074 263.105743,548.157837 269.985962,551.833374 
	C285.220215,559.971802 301.393646,564.153748 318.993744,564.017639 
	C338.302399,563.868225 351.995911,554.464600 361.505249,539.344666 
	C369.759766,526.220032 373.018188,510.916962 372.942657,495.213074 
	C372.889648,484.195129 370.580811,473.568451 366.976654,463.179901 
	C362.043549,448.960999 353.136047,437.663605 341.226257,428.784973 
	C323.319031,415.435303 302.951172,412.839325 282.031189,418.373962 
	C262.830872,423.453613 248.997650,436.378510 239.188324,453.564941 
	C231.475174,467.078766 229.836884,482.409424 225.991714,497.099487 
	C223.060043,508.299591 216.896286,517.154236 205.045410,520.471436 
	C200.648026,521.702393 196.067825,522.802124 191.541290,522.932800 
	C183.911774,523.153076 176.409744,522.545837 169.521683,518.139282 
	C164.358002,514.835938 161.498367,510.115906 158.964111,504.222229 
	C158.595551,500.731354 158.226974,497.240479 157.953293,492.852020 
	C157.982925,444.534821 158.025040,396.217651 157.977966,347.900513 
	C157.976654,346.546509 157.022278,345.193420 156.649307,343.672638 
	C156.649307,343.672638 156.492859,343.523346 156.192383,342.890472 
	C155.116730,342.603149 154.041077,342.315826 152.847610,341.609802 
	C152.576508,341.749451 152.305420,341.889099 151.501373,342.095367 
	C151.323822,342.072388 151.146271,342.049438 150.849518,341.606537 
	C150.573410,341.744354 150.297302,341.882141 149.084976,342.110168 
	C141.724548,342.089386 134.364120,342.068634 126.710808,341.471893 
	C125.808273,341.668152 124.905739,341.864410 123.147888,342.135529 
	C120.718201,342.352600 118.288521,342.569672 115.149780,343.310486 
	C115.148170,393.850037 115.146561,444.389557 115.017555,495.705078 
M610.920410,562.907288 
	C619.678101,563.024963 628.207520,561.979126 636.578918,559.104309 
	C651.201965,554.082642 662.341797,544.887817 670.002869,531.636658 
	C675.934509,521.376648 678.796387,510.114380 678.878784,498.228485 
	C678.958679,486.703857 679.297546,475.162170 678.808716,463.658325 
	C678.406311,454.187103 677.163330,444.733093 675.911804,435.322113 
	C674.845459,427.303894 673.236206,419.357880 671.696106,410.383423 
	C666.496704,411.177002 661.663452,411.760529 656.894958,412.679596 
	C650.186523,413.972595 643.554749,415.671814 636.835876,416.899811 
	C631.561523,417.863770 630.196228,419.338440 631.043213,424.450256 
	C631.999268,430.221344 633.281616,435.950348 633.968811,441.751373 
	C635.137085,451.612762 635.534546,461.579620 637.028564,471.384430 
	C638.561462,481.444061 638.498840,491.240540 636.257629,501.190186 
	C634.194031,510.351166 629.226868,516.683350 620.243103,519.293701 
	C615.402222,520.700317 610.293396,521.776062 605.280273,521.889465 
	C589.458252,522.247314 573.624451,522.088745 557.795166,522.101929 
	C556.337708,522.103149 554.880188,521.903992 553.334717,521.791443 
	C552.822021,518.620361 551.889709,515.702698 551.960999,512.809814 
	C552.298035,499.124268 551.250122,485.726013 548.229248,472.232513 
	C543.832764,452.594879 535.070557,436.246735 518.345276,424.684174 
	C505.704956,415.945618 491.582367,413.209442 476.347565,413.945465 
	C460.728851,414.700073 447.346252,420.256317 435.930695,430.659210 
	C427.759491,438.105560 421.520508,446.861694 416.819824,457.071655 
	C411.708893,468.172668 409.100250,479.693420 408.188171,491.617310 
	C407.553894,499.909485 408.559448,508.104858 410.665192,516.405273 
	C412.534576,523.774109 415.402161,530.348755 419.712738,536.198914 
	C429.362976,549.295959 442.549683,557.450134 458.470306,560.488708 
	C467.959900,562.299866 477.673065,563.112549 487.326050,563.835632 
	C494.064545,564.340454 500.871368,563.932983 507.948059,563.932983 
	C505.730499,574.009460 501.080780,582.394531 494.728607,589.648010 
	C486.013245,599.599854 475.403381,607.137390 463.220062,612.520142 
	C449.680969,618.501892 435.746460,622.995239 421.052338,624.948181 
	C416.286591,625.581665 414.423553,628.489075 415.462921,633.171509 
	C417.179291,640.904053 418.429871,648.739319 420.103424,656.482239 
	C422.739319,668.677307 420.890961,670.014893 433.827789,666.115601 
	C434.138824,666.021851 434.486481,666.055298 434.814972,666.013123 
	C449.615234,664.115601 463.539795,659.144104 477.123260,653.327271 
	C497.040192,644.798340 514.217834,632.236084 527.937134,615.456909 
	C533.151855,609.079102 537.648804,601.819702 541.028687,594.311829 
	C545.103333,585.260681 547.863953,575.584045 550.704529,566.032715 
	C551.517822,563.298340 552.469055,562.442017 555.447998,563.554138 
	C572.427368,563.672180 589.406738,563.799011 606.386353,563.867737 
	C606.924316,563.869934 607.464783,563.272095 608.507263,562.911011 
	C608.673645,562.936829 608.840027,562.962708 609.138977,563.415222 
	C609.427734,563.275452 609.716492,563.135681 610.920410,562.907288 
M170.987427,182.556274 
	C174.112305,172.749420 177.151855,162.914291 180.389572,153.144821 
	C182.892365,145.592941 182.984818,145.525284 175.170486,142.919312 
	C165.322601,139.635193 155.493835,136.275314 145.537094,133.356583 
	C144.101120,132.935638 140.928192,134.352417 140.381393,135.673203 
	C137.587952,142.420670 135.018631,149.312241 133.072083,156.347412 
	C129.827835,168.072723 126.700676,179.861694 124.299911,191.780121 
	C121.990692,203.244080 119.472755,214.880127 119.219109,226.488037 
	C118.923553,240.013580 120.028229,253.750488 122.256119,267.106995 
	C125.399490,285.951935 134.789841,302.219330 148.311264,315.550934 
	C161.067780,328.128418 176.186844,337.453705 193.914673,341.458069 
	C205.484406,344.071442 217.213638,347.110687 228.958023,347.529236 
	C243.289062,348.039948 258.002930,347.475861 272.019104,344.694824 
	C289.359619,341.254272 306.041687,334.938690 320.476593,323.858856 
	C331.785706,315.178314 341.806091,305.322632 348.834106,292.934631 
	C353.389221,284.905487 357.826050,276.483276 360.277863,267.670197 
	C363.266724,256.926575 364.865326,245.642334 365.673004,234.491104 
	C366.410889,224.303741 365.551880,213.965271 364.898773,203.725143 
	C364.466034,196.939621 363.417084,190.161804 362.180939,183.466019 
	C359.964203,171.458633 357.492950,159.495224 354.909027,147.560867 
	C354.303223,144.763000 353.170746,141.144012 349.308746,142.070465 
	C337.875549,144.813232 326.512299,147.877930 315.234131,151.198380 
	C313.830750,151.611557 311.976166,154.541641 312.245728,155.934967 
	C314.088776,165.461548 316.732513,174.833939 318.553131,184.363953 
	C320.418610,194.128815 322.594238,203.985062 322.921967,213.858139 
	C323.427216,229.077957 324.185120,244.499710 318.036621,259.141724 
	C314.050507,268.634247 309.003967,277.424835 301.190887,284.148132 
	C296.587250,288.109650 291.477997,292.003540 285.915314,294.216339 
	C275.996857,298.161835 265.746063,301.876862 255.288010,303.677551 
	C246.248383,305.234039 236.718933,304.265106 227.422211,303.943665 
	C207.018936,303.238251 189.464859,296.279083 175.832840,280.373322 
	C167.953918,271.180206 164.188110,260.346802 163.209534,248.800919 
	C161.325424,226.571136 164.618011,204.754623 170.987427,182.556274 
M668.552673,345.852448 
	C670.497864,343.133453 670.055847,340.626526 667.803711,338.352600 
	C660.436584,330.914368 653.131104,323.411530 645.610168,316.131592 
	C643.651550,314.235687 640.952148,312.527405 638.245117,315.206879 
	C630.688416,322.686462 623.124268,330.163361 615.770264,337.839844 
	C613.575012,340.131378 613.148438,342.722198 615.982483,345.536591 
	C622.870056,352.376495 629.359802,359.614929 636.147461,366.558228 
	C640.750366,371.266693 643.275879,371.231873 647.782166,366.740173 
	C654.563843,359.980408 661.293579,353.168518 668.552673,345.852448 
M563.433777,353.959534 
	C568.148865,358.657318 572.878967,363.340179 577.572998,368.058868 
	C580.102112,370.601257 582.649902,370.932831 585.291626,368.286255 
	C592.929565,360.634216 600.529114,352.943512 608.209290,345.334106 
	C610.338196,343.224823 610.830444,341.276611 608.548157,338.998138 
	C600.659058,331.122253 592.907166,323.102264 584.796387,315.462708 
	C583.624207,314.358612 579.880676,314.074677 578.842712,315.040344 
	C570.615662,322.694366 562.655029,330.646942 554.898132,338.780182 
	C553.810425,339.920654 553.356689,343.220581 554.192200,344.348236 
	C556.673950,347.697693 559.945923,350.461670 563.433777,353.959534 
M268.993652,125.495537 
	C271.840973,122.697708 274.868225,120.051750 277.432098,117.014610 
	C278.260712,116.033043 278.616394,113.337898 277.926819,112.590469 
	C270.250000,104.269295 262.434082,96.067047 254.392746,88.098022 
	C252.339706,86.063461 249.931763,85.026680 246.963547,88.321465 
	C239.875153,96.189735 232.323608,103.664612 224.636246,110.958038 
	C221.424484,114.005211 221.380737,116.173676 224.428253,119.131569 
	C231.827133,126.312866 239.162415,133.563492 246.371384,140.934769 
	C249.153442,143.779449 251.223007,143.459457 253.825806,140.704849 
	C258.579224,135.674240 263.587433,130.884384 268.993652,125.495537 
z" data-index="0" style="opacity: 1; visibility: visible; fill: rgb(254, 255, 255);"></path>
<path fill="#416D9D" opacity="1.000000" stroke="none" d="
M555.008850,562.872681 
	C552.469055,562.442017 551.517822,563.298340 550.704529,566.032715 
	C547.863953,575.584045 545.103333,585.260681 541.028687,594.311829 
	C537.648804,601.819702 533.151855,609.079102 527.937134,615.456909 
	C514.217834,632.236084 497.040192,644.798340 477.123260,653.327271 
	C463.539795,659.144104 449.615234,664.115601 434.814972,666.013123 
	C434.486481,666.055298 434.138824,666.021851 433.827789,666.115601 
	C420.890961,670.014893 422.739319,668.677307 420.103424,656.482239 
	C418.429871,648.739319 417.179291,640.904053 415.462921,633.171509 
	C414.423553,628.489075 416.286591,625.581665 421.052338,624.948181 
	C435.746460,622.995239 449.680969,618.501892 463.220062,612.520142 
	C475.403381,607.137390 486.013245,599.599854 494.728607,589.648010 
	C501.080780,582.394531 505.730499,574.009460 507.948059,563.932983 
	C500.871368,563.932983 494.064545,564.340454 487.326050,563.835632 
	C477.673065,563.112549 467.959900,562.299866 458.470306,560.488708 
	C442.549683,557.450134 429.362976,549.295959 419.712738,536.198914 
	C415.402161,530.348755 412.534576,523.774109 410.665192,516.405273 
	C408.559448,508.104858 407.553894,499.909485 408.188171,491.617310 
	C409.100250,479.693420 411.708893,468.172668 416.819824,457.071655 
	C421.520508,446.861694 427.759491,438.105560 435.930695,430.659210 
	C447.346252,420.256317 460.728851,414.700073 476.347565,413.945465 
	C491.582367,413.209442 505.704956,415.945618 518.345276,424.684174 
	C535.070557,436.246735 543.832764,452.594879 548.229248,472.232513 
	C551.250122,485.726013 552.298035,499.124268 551.960999,512.809814 
	C551.889709,515.702698 552.822021,518.620361 553.334717,521.791443 
	C554.880188,521.903992 556.337708,522.103149 557.795166,522.101929 
	C573.624451,522.088745 589.458252,522.247314 605.280273,521.889465 
	C610.293396,521.776062 615.402222,520.700317 620.243103,519.293701 
	C629.226868,516.683350 634.194031,510.351166 636.257629,501.190186 
	C638.498840,491.240540 638.561462,481.444061 637.028564,471.384430 
	C635.534546,461.579620 635.137085,451.612762 633.968811,441.751373 
	C633.281616,435.950348 631.999268,430.221344 631.043213,424.450256 
	C630.196228,419.338440 631.561523,417.863770 636.835876,416.899811 
	C643.554749,415.671814 650.186523,413.972595 656.894958,412.679596 
	C661.663452,411.760529 666.496704,411.177002 671.696106,410.383423 
	C673.236206,419.357880 674.845459,427.303894 675.911804,435.322113 
	C677.163330,444.733093 678.406311,454.187103 678.808716,463.658325 
	C679.297546,475.162170 678.958679,486.703857 678.878784,498.228485 
	C678.796387,510.114380 675.934509,521.376648 670.002869,531.636658 
	C662.341797,544.887817 651.201965,554.082642 636.578918,559.104309 
	C628.207520,561.979126 619.678101,563.024963 610.213196,562.934692 
	C609.339417,562.970947 609.172913,562.979736 609.006348,562.988525 
	C608.840027,562.962708 608.673645,562.936829 607.899963,562.720581 
	C606.490295,562.357727 605.688416,562.037292 604.885559,562.034912 
	C589.524841,561.989990 574.164062,561.961243 558.803467,562.006653 
	C557.537720,562.010437 556.273682,562.570923 555.008850,562.872681 
M450.791321,486.333344 
	C450.517456,490.763702 449.652588,495.253876 450.093658,499.611877 
	C450.989441,508.461517 454.736938,515.631897 464.258026,517.978271 
	C469.099304,519.171387 473.977570,520.570129 478.911377,520.958313 
	C489.410919,521.784668 499.957642,522.011414 510.976440,522.505981 
	C510.976440,513.376892 511.133118,505.278381 510.939697,497.188293 
	C510.650238,485.079956 507.776642,473.601013 500.706970,463.623901 
	C493.416077,453.334595 478.828247,451.768951 468.454132,457.115082 
	C456.973450,463.031433 453.072723,473.717285 450.791321,486.333344 
z" data-index="1" style="opacity: 1; visibility: visible; fill: rgb(0, 0, 0);"></path>
<path fill="#416D9E" opacity="1.000000" stroke="none" d="
M158.767822,505.061340 
	C161.498367,510.115906 164.358002,514.835938 169.521683,518.139282 
	C176.409744,522.545837 183.911774,523.153076 191.541290,522.932800 
	C196.067825,522.802124 200.648026,521.702393 205.045410,520.471436 
	C216.896286,517.154236 223.060043,508.299591 225.991714,497.099487 
	C229.836884,482.409424 231.475174,467.078766 239.188324,453.564941 
	C248.997650,436.378510 262.830872,423.453613 282.031189,418.373962 
	C302.951172,412.839325 323.319031,415.435303 341.226257,428.784973 
	C353.136047,437.663605 362.043549,448.960999 366.976654,463.179901 
	C370.580811,473.568451 372.889648,484.195129 372.942657,495.213074 
	C373.018188,510.916962 369.759766,526.220032 361.505249,539.344666 
	C351.995911,554.464600 338.302399,563.868225 318.993744,564.017639 
	C301.393646,564.153748 285.220215,559.971802 269.985962,551.833374 
	C263.105743,548.157837 256.903534,543.213074 250.325638,538.798523 
	C241.358749,549.469849 229.874832,557.784241 216.037872,561.138550 
	C205.404160,563.716248 194.100372,563.999695 183.067719,564.292786 
	C175.985626,564.480896 168.591736,563.757263 161.800339,561.820129 
	C147.435257,557.722717 134.825500,550.637756 126.558525,537.319641 
	C120.399765,527.397827 117.144501,516.684265 116.077126,505.169098 
	C115.881920,503.063141 115.390442,500.984589 115.427361,498.261353 
	C116.204025,495.570007 116.922165,493.511169 116.925194,491.451294 
	C116.993805,444.696106 116.997246,397.940796 116.946404,351.185577 
	C116.944122,349.086029 116.316513,346.987152 115.966476,344.537781 
	C115.921463,343.720642 115.890152,343.253693 115.858841,342.786743 
	C118.288521,342.569672 120.718201,342.352600 123.794128,342.275818 
	C125.294807,342.293335 126.149246,342.170593 127.003685,342.047882 
	C134.364120,342.068634 141.724548,342.089386 149.789886,342.084625 
	C150.494781,342.059082 150.968735,342.026489 150.968735,342.026489 
	C151.146271,342.049438 151.323822,342.072388 152.000656,342.079956 
	C152.499939,342.064575 152.965408,342.028534 152.965408,342.028503 
	C154.041077,342.315826 155.116730,342.603149 156.208603,343.692078 
	C156.129486,358.483887 155.959549,372.474091 155.953323,386.464355 
	C155.937119,422.957520 155.927551,459.451080 156.138321,495.943207 
	C156.155899,498.987549 157.851730,502.022186 158.767822,505.061340 
M321.844574,521.607117 
	C324.088226,519.660645 326.770935,518.038330 328.492462,515.706360 
	C333.482300,508.947418 332.160248,500.931427 331.940460,493.314056 
	C331.578674,480.776855 327.588562,469.666138 317.181519,461.793182 
	C303.971954,451.800140 289.445618,455.889984 280.186768,466.861359 
	C273.743439,474.496429 270.376984,483.573334 268.681519,493.558105 
	C267.843018,498.496277 268.122681,502.150024 272.225067,504.727936 
	C280.415039,509.874451 288.411896,515.652893 297.252136,519.338989 
	C304.544617,522.379761 312.738190,524.916138 321.844574,521.607117 
z" data-index="2" style="opacity: 1; visibility: visible; fill: rgb(0, 0, 0);"></path>
<path fill="#416D9D" opacity="1.000000" stroke="none" d="
M170.871185,182.955475 
	C164.618011,204.754623 161.325424,226.571136 163.209534,248.800919 
	C164.188110,260.346802 167.953918,271.180206 175.832840,280.373322 
	C189.464859,296.279083 207.018936,303.238251 227.422211,303.943665 
	C236.718933,304.265106 246.248383,305.234039 255.288010,303.677551 
	C265.746063,301.876862 275.996857,298.161835 285.915314,294.216339 
	C291.477997,292.003540 296.587250,288.109650 301.190887,284.148132 
	C309.003967,277.424835 314.050507,268.634247 318.036621,259.141724 
	C324.185120,244.499710 323.427216,229.077957 322.921967,213.858139 
	C322.594238,203.985062 320.418610,194.128815 318.553131,184.363953 
	C316.732513,174.833939 314.088776,165.461548 312.245728,155.934967 
	C311.976166,154.541641 313.830750,151.611557 315.234131,151.198380 
	C326.512299,147.877930 337.875549,144.813232 349.308746,142.070465 
	C353.170746,141.144012 354.303223,144.763000 354.909027,147.560867 
	C357.492950,159.495224 359.964203,171.458633 362.180939,183.466019 
	C363.417084,190.161804 364.466034,196.939621 364.898773,203.725143 
	C365.551880,213.965271 366.410889,224.303741 365.673004,234.491104 
	C364.865326,245.642334 363.266724,256.926575 360.277863,267.670197 
	C357.826050,276.483276 353.389221,284.905487 348.834106,292.934631 
	C341.806091,305.322632 331.785706,315.178314 320.476593,323.858856 
	C306.041687,334.938690 289.359619,341.254272 272.019104,344.694824 
	C258.002930,347.475861 243.289062,348.039948 228.958023,347.529236 
	C217.213638,347.110687 205.484406,344.071442 193.914673,341.458069 
	C176.186844,337.453705 161.067780,328.128418 148.311264,315.550934 
	C134.789841,302.219330 125.399490,285.951935 122.256119,267.106995 
	C120.028229,253.750488 118.923553,240.013580 119.219109,226.488037 
	C119.472755,214.880127 121.990692,203.244080 124.299911,191.780121 
	C126.700676,179.861694 129.827835,168.072723 133.072083,156.347412 
	C135.018631,149.312241 137.587952,142.420670 140.381393,135.673203 
	C140.928192,134.352417 144.101120,132.935638 145.537094,133.356583 
	C155.493835,136.275314 165.322601,139.635193 175.170486,142.919312 
	C182.984818,145.525284 182.892365,145.592941 180.389572,153.144821 
	C177.151855,162.914291 174.112305,172.749420 170.871185,182.955475 
z" data-index="3" style="opacity: 1; visibility: visible; fill: rgb(0, 0, 0);"></path>
<path fill="#416C9C" opacity="1.000000" stroke="none" d="
M668.299072,346.115601 
	C661.293579,353.168518 654.563843,359.980408 647.782166,366.740173 
	C643.275879,371.231873 640.750366,371.266693 636.147461,366.558228 
	C629.359802,359.614929 622.870056,352.376495 615.982483,345.536591 
	C613.148438,342.722198 613.575012,340.131378 615.770264,337.839844 
	C623.124268,330.163361 630.688416,322.686462 638.245117,315.206879 
	C640.952148,312.527405 643.651550,314.235687 645.610168,316.131592 
	C653.131104,323.411530 660.436584,330.914368 667.803711,338.352600 
	C670.055847,340.626526 670.497864,343.133453 668.299072,346.115601 
z" data-index="4" style="opacity: 1; visibility: visible; fill: rgb(0, 0, 0);"></path>
<path fill="#416C9C" opacity="1.000000" stroke="none" d="
M563.171387,353.707031 
	C559.945923,350.461670 556.673950,347.697693 554.192200,344.348236 
	C553.356689,343.220581 553.810425,339.920654 554.898132,338.780182 
	C562.655029,330.646942 570.615662,322.694366 578.842712,315.040344 
	C579.880676,314.074677 583.624207,314.358612 584.796387,315.462708 
	C592.907166,323.102264 600.659058,331.122253 608.548157,338.998138 
	C610.830444,341.276611 610.338196,343.224823 608.209290,345.334106 
	C600.529114,352.943512 592.929565,360.634216 585.291626,368.286255 
	C582.649902,370.932831 580.102112,370.601257 577.572998,368.058868 
	C572.878967,363.340179 568.148865,358.657318 563.171387,353.707031 
z" data-index="5" style="opacity: 1; visibility: visible; fill: rgb(0, 0, 0);"></path>
<path fill="#416C9C" opacity="1.000000" stroke="none" d="
M268.741516,125.744820 
	C263.587433,130.884384 258.579224,135.674240 253.825806,140.704849 
	C251.223007,143.459457 249.153442,143.779449 246.371384,140.934769 
	C239.162415,133.563492 231.827133,126.312866 224.428253,119.131569 
	C221.380737,116.173676 221.424484,114.005211 224.636246,110.958038 
	C232.323608,103.664612 239.875153,96.189735 246.963547,88.321465 
	C249.931763,85.026680 252.339706,86.063461 254.392746,88.098022 
	C262.434082,96.067047 270.250000,104.269295 277.926819,112.590469 
	C278.616394,113.337898 278.260712,116.033043 277.432098,117.014610 
	C274.868225,120.051750 271.840973,122.697708 268.741516,125.744820 
z" data-index="6" style="opacity: 1; visibility: visible; fill: rgb(0, 0, 0);"></path>
<path fill="#2A4F7D" opacity="1.000000" stroke="none" d="
M158.865967,504.641785 
	C157.851730,502.022186 156.155899,498.987549 156.138321,495.943207 
	C155.927551,459.451080 155.937119,422.957520 155.953323,386.464355 
	C155.959549,372.474091 156.129486,358.483887 156.358841,344.008484 
	C156.492859,343.523346 156.649307,343.672638 156.766373,344.205963 
	C156.919327,392.510254 156.945282,440.281219 157.027527,488.052094 
	C157.030807,489.951721 157.569290,491.850464 157.858398,493.749603 
	C158.226974,497.240479 158.595551,500.731354 158.865967,504.641785 
z" data-index="7"></path>
<path fill="#2A4F7D" opacity="1.000000" stroke="none" d="
M115.980171,344.887970 
	C116.316513,346.987152 116.944122,349.086029 116.946404,351.185577 
	C116.997246,397.940796 116.993805,444.696106 116.925194,491.451294 
	C116.922165,493.511169 116.204025,495.570007 115.502754,497.839966 
	C115.130196,497.268738 115.073875,496.486908 115.260315,494.951721 
	C115.677521,492.552124 116.003922,490.905914 116.004326,489.259674 
	C116.016212,441.135773 115.995590,393.011871 115.980171,344.887970 
z" data-index="8"></path>
<path fill="#416D9D" opacity="1.000000" stroke="none" d="
M115.966476,344.537781 
	C115.995590,393.011871 116.016212,441.135773 116.004326,489.259674 
	C116.003922,490.905914 115.677521,492.552124 115.324013,494.563721 
	C115.146561,444.389557 115.148170,393.850037 115.504311,343.048615 
	C115.890152,343.253693 115.921463,343.720642 115.966476,344.537781 
z" data-index="9"></path>
<path fill="#CEE9FF" opacity="1.000000" stroke="none" d="
M157.905853,493.300812 
	C157.569290,491.850464 157.030807,489.951721 157.027527,488.052094 
	C156.945282,440.281219 156.919327,392.510254 156.697876,344.289612 
	C157.022278,345.193420 157.976654,346.546509 157.977966,347.900513 
	C158.025040,396.217651 157.982925,444.534821 157.905853,493.300812 
z" data-index="10"></path>
<path fill="#2A4F7D" opacity="1.000000" stroke="none" d="
M555.228394,563.213379 
	C556.273682,562.570923 557.537720,562.010437 558.803467,562.006653 
	C574.164062,561.961243 589.524841,561.989990 604.885559,562.034912 
	C605.688416,562.037292 606.490295,562.357727 607.648315,562.742065 
	C607.464783,563.272095 606.924316,563.869934 606.386353,563.867737 
	C589.406738,563.799011 572.427368,563.672180 555.228394,563.213379 
z" data-index="11"></path>
<path fill="#2A4F7D" opacity="1.000000" stroke="none" d="
M126.857246,341.759888 
	C126.149246,342.170593 125.294807,342.293335 124.221786,342.238342 
	C124.905739,341.864410 125.808273,341.668152 126.857246,341.759888 
z" data-index="12"></path>
<path fill="#2A4F7D" opacity="1.000000" stroke="none" d="
M152.906509,341.819153 
	C152.965408,342.028534 152.499939,342.064575 152.267120,342.046661 
	C152.305420,341.889099 152.576508,341.749451 152.906509,341.819153 
z" data-index="13"></path>
<path fill="#2A4F7D" opacity="1.000000" stroke="none" d="
M150.909119,341.816528 
	C150.968735,342.026489 150.494781,342.059082 150.257996,342.039490 
	C150.297302,341.882141 150.573410,341.744354 150.909119,341.816528 
z" data-index="14"></path>
<path fill="#2A4F7D" opacity="1.000000" stroke="none" d="
M609.072632,563.201904 
	C609.172913,562.979736 609.339417,562.970947 609.755615,562.979065 
	C609.716492,563.135681 609.427734,563.275452 609.072632,563.201904 
z" data-index="15"></path>
<path fill="#000000" opacity="1.000000" stroke="none" d="
M450.865295,485.894135 
	C453.072723,473.717285 456.973450,463.031433 468.454132,457.115082 
	C478.828247,451.768951 493.416077,453.334595 500.706970,463.623901 
	C507.776642,473.601013 510.650238,485.079956 510.939697,497.188293 
	C511.133118,505.278381 510.976440,513.376892 510.976440,522.505981 
	C499.957642,522.011414 489.410919,521.784668 478.911377,520.958313 
	C473.977570,520.570129 469.099304,519.171387 464.258026,517.978271 
	C454.736938,515.631897 450.989441,508.461517 450.093658,499.611877 
	C449.652588,495.253876 450.517456,490.763702 450.865295,485.894135 
z" data-index="16" style="opacity: 1; visibility: visible; fill: rgb(254, 255, 255);"></path>
<path fill="#000000" opacity="1.000000" stroke="none" d="
M321.459412,521.741821 
	C312.738190,524.916138 304.544617,522.379761 297.252136,519.338989 
	C288.411896,515.652893 280.415039,509.874451 272.225067,504.727936 
	C268.122681,502.150024 267.843018,498.496277 268.681519,493.558105 
	C270.376984,483.573334 273.743439,474.496429 280.186768,466.861359 
	C289.445618,455.889984 303.971954,451.800140 317.181519,461.793182 
	C327.588562,469.666138 331.578674,480.776855 331.940460,493.314056 
	C332.160248,500.931427 333.482300,508.947418 328.492462,515.706360 
	C326.770935,518.038330 324.088226,519.660645 321.459412,521.741821 
z" data-index="17" style="opacity: 1; visibility: visible; fill: rgb(254, 255, 255);"></path>
</svg>